<svg version="1.2" xmlns="http://www.w3.org/2000/svg" viewBox="0 0 400 400" width="400" height="400">
	<style>
		.s0 { fill: #000000 } 
	</style>
	<path id="IK" class="s0" aria-label="IK"  d="m78.9 276.2v-156.3q0-17.6-20.2-17.6-3.2 0-3.2-1.2v-3.5q0-1.1 1.1-1.1h73.4q1.2 0 1.2 1.1v3.5q0 1.2-6.4 1.2-6.5 0-11.9 4.1-5.4 4.1-5.4 16.9v156.3q0 17.5 20.3 17.5 3.1 0 3.1 1.2v3.5q0 1.2-1.2 1.2h-73.3q-1.2 0-1.2-1.2v-3.5q0-1.2 6.4-1.2 6.5 0 11.9-4.1 5.4-4.1 5.4-16.8zm159.3 23.1v2.5q0 1.2-1.2 1.2h-86.1q-1 0-1-1.2v-2.8q0-1.1 6.1-1.3 6.3-0.1 15.2-4.5 9.1-4.6 9.1-13.6v-159.7q0-16.6-29.3-18.3-1.1 0-1.1-1.2v-2.8q0-1.1 1-1.1h86.1q1.2 0 1.2 1.1v2.8q0 0.9-6.2 0.9-6 0-13.3 3.5-9.8 4.7-9.8 15.4v64.6q0 12.9 2.5 12.9 6.3 0 15.9-7.9 9.7-8.1 17.2-16.6 7.5-8.5 14.9-20.1 7.6-11.7 10.6-15.9 11-15.5 11-23.3 0-7.9-6.8-10.6-4.4-1.7-12.6-1.7h-1.4q-1.2 0-1.2-1.2v-2.8q0-1.1 1.2-1.1h84.6q1.2 0 1.2 1.1v2.8q0 1.8-1.8 1.8-18.7 0.6-27.3 5-8.7 4.2-14 9.3-5.1 5.2-11.2 15.6-18.8 31.7-37.4 50.8-7.9 8-8.2 9.9 0.7 1.5 12 11.8 28.1 25.7 59 69.8 11.6 16.9 30.4 20.8 12.4 3 15.6 3 3.4 0 3.4 1.1v2.5q0 1.2-1.2 1.2h-95.8q-1.1 0-1.1-1.2v-2.8q0-1.1 4.9-1.6 16.6-1.4 16.6-9.6-1-8.2-29.4-40.6-5.2-5.7-10.7-12.8-22.3-27.3-36.7-27.3h-2.7q-1.5 0-1.5 2v68.6q0 20.5 28.1 20.5 1.2 0 1.2 1.1z"/>
</svg>